<svg xmlns="http://www.w3.org/2000/svg" viewBox="0 0 191.5 192.5"><path fill="#00A99D" d="M0 0h191.5v192.5H0z"/><path fill="#FFF" d="M91.4 129.6l-5.1 17.2-9.5-10.4-12.3 2.9 6.6-17.6 9.8 5.7zM116.1 124.3l.6 24.4-11.4-5.8-10.8 6.5v-21.1h11.4z"/><g><g fill="#FFF"><path d="M96.7 61.2c11.9 0 21.6 9.7 21.6 21.6 0 11.9-9.7 21.6-21.6 21.6S75 94.7 75 82.8c0-11.9 9.7-21.6 21.7-21.6zm20.6 21.6c0-11.4-9.3-20.6-20.6-20.6S76 71.4 76 82.8c0 11.4 9.3 20.6 20.6 20.6s20.7-9.2 20.7-20.6z"/><path d="M96.7 62.2c11.4 0 20.6 9.2 20.6 20.6 0 11.4-9.3 20.6-20.6 20.6S76 94.2 76 82.8c0-11.4 9.3-20.6 20.7-20.6z"/></g></g><g><path fill="#FFF" d="M136.9 76.9l-.6 13.5-8 .1-1.4 1.9 7.7 5.3-6.1 11.3-8.5-4.9-2 2.3 4.9 8-11.4 6.7-6.2-8.7-2 .5.4 9.6-13.9.4v-9.6l-2.4-.6-4.9 8.1-12.4-6.8 5.5-9.3-2.1-1.1-7.9 4.5-7.5-11.6 8.9-5.9-1.5-1.9h-8.7V75.5l9.6.6.2-3.7-7.6-5 7.1-11.2 7.9 4.4 2-1.7-4-8.4 11-6.2 4.8 7.7 2.9-.7.7-8.8h13.5v10.7l7.4-8.6 10.6 6.7-4.6 9 2.1 2 8-5 7.3 10.9-8.8 6.2.8 2.5h9.2zm-14 5.9c0-14.5-11.8-26.2-26.2-26.2-14.5 0-26.2 11.8-26.2 26.2S82.2 109 96.7 109c14.4 0 26.2-11.8 26.2-26.2z"/></g></svg>