<svg xmlns="http://www.w3.org/2000/svg" viewBox="0 0 192.2 192.2"><path fill="#00A99D" d="M0 0h192.2v192.2H0z"/><path fill="#FFF" d="M93.2 97.6l-8.8-25.5 53.3-2.7 9.3 26.5-53.4 2.8-.4-1.1M146.3 99l-52.9 3.7-10.5 29 53-3.8zM59.1 66.5l22.4 6.1 6.1 28.8-7.3 30.2-27.9-11.3-3.3-28.4z"/><g fill="#00A99D"><path d="M63.7 82.9l6.5 2.2.5-9.5-7.1-2.6zM72.8 85.9l5.9 1.6-4.5-11.7zM61.2 73.4l-3.5 7.3 3.3 1zM57.5 84l4.1 1.1-.4 9.7S53.9 92 54 92c.2.1 3.5-8 3.5-8zM64.4 86.2l6.2 1.8-.4 9-7-1.5zM74.2 89.5l4.9 1.4 2.4 8.9-7.9-1.8zM64.4 98.4l5.8 1.2.4 9.7-6.5-1.5zM73.6 101.2l7.1 2.2-.2 10-7.6-2zM64 111.2l6.2 1.2.4 10.6-7.4-2.2zM73.6 113.9l6.1 2-.6 11.5-6.2-2zM55.3 107.9l6.2 2-.3 10.7-4.8-1.9zM53.1 95l8.2 2.6-.1 9.1-7.5-2.5z"/></g><path fill="#FFF" d="M79.1 65.9l5.3 1.1s1.7-9 10.8-9.6c9.1-.6 10.7 8.6 10.7 8.6l6-.5s-4.2-13.7-16.7-13.7-16.1 14.1-16.1 14.1z"/></svg>